<svg xmlns="http://www.w3.org/2000/svg" viewBox="0 0 1600 1000">
  <defs>
    <linearGradient id="d" x1="0" x2="1" y1="0" y2="1">
      <stop offset="0" stop-color="#7ee787" stop-opacity="0.20"/>
      <stop offset="1" stop-color="#2ec4b6" stop-opacity="0.18"/>
    </linearGradient>
    <filter id="s" x="-10%" y="-10%" width="120%" height="120%">
      <feDropShadow dx="0" dy="18" stdDeviation="18" flood-color="#0f172a" flood-opacity="0.14"/>
    </filter>
  </defs>
  <rect width="1600" height="1000" fill="#ffffff"/>
  <rect width="1600" height="1000" fill="url(#d)"/>
  <g filter="url(#s)" transform="translate(300 270)">
    <rect x="0" y="0" width="980" height="520" rx="52" fill="#ffffff" opacity="0.92" stroke="#0f172a" stroke-opacity="0.08"/>
  </g>
  <g transform="translate(420 420)" opacity="0.85">
    <path d="M120 240c0-120 80-220 200-220s200 100 200 220-80 220-200 220-200-100-200-220Z" fill="#2ec4b6" opacity="0.20"/>
    <path d="M200 240c0-90 60-165 150-165s150 75 150 165-60 165-150 165-150-75-150-165Z" fill="#ff7a59" opacity="0.14"/>
    <path d="M290 240c0-60 40-110 100-110s100 50 100 110-40 110-100 110-100-50-100-110Z" fill="#1f3a5f" opacity="0.10"/>
  </g>
  <text x="420" y="360" font-family="ui-serif, Georgia, serif" font-size="64" font-weight="800" fill="#1f3a5f">Fibre</text>
  <text x="420" y="420" font-family="ui-sans-serif, system-ui" font-size="28" font-weight="700" fill="#475569">Piccoli passi, grande impatto</text>
</svg>