<svg xmlns="http://www.w3.org/2000/svg" viewBox="0 0 1600 1000">
  <defs>
    <linearGradient id="c" x1="0" x2="1" y1="0" y2="1">
      <stop offset="0" stop-color="#1f3a5f" stop-opacity="0.16"/>
      <stop offset="1" stop-color="#2ec4b6" stop-opacity="0.22"/>
    </linearGradient>
    <filter id="s" x="-10%" y="-10%" width="120%" height="120%">
      <feDropShadow dx="0" dy="18" stdDeviation="18" flood-color="#0f172a" flood-opacity="0.14"/>
    </filter>
  </defs>
  <rect width="1600" height="1000" fill="#ffffff"/>
  <rect width="1600" height="1000" fill="url(#c)"/>
  <g filter="url(#s)" transform="translate(1000 220)">
    <path d="M160 0c90 150 140 250 140 340 0 120-80 220-220 220S-140 460-140 340C-140 250-90 150 0 0Z"
      fill="#2ec4b6" opacity="0.25"/>
    <path d="M110 60c70 120 110 200 110 270 0 90-60 160-170 160S-110 420-110 330c0-70 40-150 110-270Z"
      fill="#1f3a5f" opacity="0.12"/>
  </g>
  <text x="120" y="160" font-family="ui-serif, Georgia, serif" font-size="64" font-weight="800" fill="#1f3a5f">Idratazione</text>
  <text x="120" y="220" font-family="ui-sans-serif, system-ui" font-size="28" font-weight="700" fill="#475569">Quanta acqua serve davvero?</text>
</svg>