<svg xmlns="http://www.w3.org/2000/svg" viewBox="0 0 1600 1000">
  <defs>
    <linearGradient id="a" x1="0" x2="1" y1="0" y2="1">
      <stop offset="0" stop-color="#2ec4b6" stop-opacity="0.22"/>
      <stop offset="1" stop-color="#ff7a59" stop-opacity="0.18"/>
    </linearGradient>
  </defs>
  <rect width="1600" height="1000" fill="#ffffff"/>
  <rect width="1600" height="1000" fill="url(#a)"/>
  <g transform="translate(800 520)">
    <circle r="300" fill="#ffffff" opacity="0.95" stroke="#0f172a" stroke-opacity="0.10" stroke-width="6"/>
    <circle r="230" fill="#ffffff" opacity="0.92" stroke="#0f172a" stroke-opacity="0.08" stroke-width="4"/>
    <path d="M0 0 L230 0 A230 230 0 0 1 115 199 Z" fill="#2ec4b6" opacity="0.35"/>
    <path d="M0 0 L115 199 A230 230 0 0 1 -230 0 Z" fill="#ff7a59" opacity="0.26"/>
    <path d="M0 0 L-230 0 A230 230 0 0 1 0 -230 Z" fill="#1f3a5f" opacity="0.18"/>
    <path d="M0 0 L0 -230 A230 230 0 0 1 230 0 Z" fill="#f9c74f" opacity="0.28"/>
  </g>
  <text x="120" y="150" font-family="ui-serif, Georgia, serif" font-size="64" font-weight="800" fill="#1f3a5f">Plate Method</text>
  <text x="120" y="210" font-family="ui-sans-serif, system-ui" font-size="28" font-weight="700" fill="#475569">Un piatto bilanciato, senza contare calorie</text>
</svg>