<svg xmlns="http://www.w3.org/2000/svg" viewBox="0 0 64 64">
  <defs>
    <linearGradient id="g" x1="0" x2="1" y1="0" y2="1">
      <stop offset="0" stop-color="#2ec4b6"/>
      <stop offset="1" stop-color="#ff7a59"/>
    </linearGradient>
  </defs>
  <rect x="6" y="6" width="52" height="52" rx="16" fill="url(#g)"/>
  <path fill="#0f172a" opacity="0.92"
    d="M42 16c-7 1-13 5-17 11-3 4-4 8-4 12 0 8 6 14 14 14 10 0 18-8 18-18 0-8-4-16-11-19Zm-12 34c1-3 3-6 6-8 3-2 7-3 11-4-2 7-8 12-15 12-1 0-2 0-2-.1Z"/>
</svg>